<svg width="36" height="36" viewBox="0 0 36 36" fill="none" xmlns="http://www.w3.org/2000/svg">
<path fill-rule="evenodd" clip-rule="evenodd" d="M10.875 9.94653V8.19153C10.8752 7.56306 11.1009 6.95553 11.511 6.47934C11.9211 6.00314 12.4885 5.6899 13.11 5.59653L14.94 5.32203C16.9687 5.0188 19.0313 5.0188 21.06 5.32203L22.89 5.59653C23.5115 5.6899 24.0789 6.00314 24.489 6.47934C24.8991 6.95553 25.1248 7.56306 25.125 8.19153V9.94653L27.696 10.1535C28.6526 10.2308 29.5556 10.6266 30.2607 11.2776C30.9658 11.9286 31.4322 12.7972 31.5855 13.7445C32.2841 18.0534 32.2841 22.4467 31.5855 26.7555C31.4322 27.7029 30.9658 28.5715 30.2607 29.2225C29.5556 29.8735 28.6526 30.2693 27.696 30.3465L24.888 30.5715C20.3035 30.9421 15.6965 30.9421 11.112 30.5715L8.304 30.3465C7.34745 30.2693 6.44443 29.8735 5.73932 29.2225C5.03422 28.5715 4.56775 27.7029 4.4145 26.7555C3.71592 22.4467 3.71592 18.0534 4.4145 13.7445C4.56805 12.7974 5.03466 11.9292 5.73973 11.2785C6.44481 10.6278 7.34766 10.2322 8.304 10.155L10.875 9.94653ZM15.2745 7.54653C17.0815 7.27663 18.9185 7.27663 20.7255 7.54653L22.5555 7.82103C22.6443 7.83431 22.7254 7.87901 22.784 7.947C22.8426 8.01499 22.8749 8.10175 22.875 8.19153V9.78903C19.6276 9.60357 16.3724 9.60357 13.125 9.78903V8.19003C13.1251 8.10025 13.1574 8.01349 13.216 7.9455C13.2746 7.87751 13.3557 7.83281 13.4445 7.81953L15.2745 7.54653ZM11.2935 12.1695C15.7575 11.8095 20.2425 11.8095 24.7065 12.1695L27.5145 12.3975C27.9695 12.4339 28.3992 12.6219 28.7348 12.9314C29.0704 13.2408 29.2924 13.6539 29.3655 14.1045C29.4585 14.6815 29.5385 15.2605 29.6055 15.8415C25.9949 17.6187 22.0243 18.5429 18 18.5429C13.9757 18.5429 10.0051 17.6187 6.3945 15.8415C6.4605 15.2615 6.5405 14.6825 6.6345 14.1045C6.70756 13.6539 6.92964 13.2408 7.26522 12.9314C7.60079 12.6219 8.03047 12.4339 8.4855 12.3975L11.2935 12.1695ZM6.1935 18.2355C9.90133 19.921 13.9271 20.7931 18 20.7931C22.0729 20.7931 26.0987 19.921 29.8065 18.2355C29.9502 20.9635 29.8023 23.699 29.3655 26.3955C29.2927 26.8464 29.0708 27.2598 28.7352 27.5696C28.3996 27.8794 27.9698 28.0675 27.5145 28.104L24.7065 28.329C20.2425 28.689 15.7575 28.689 11.2935 28.329L8.4855 28.104C8.03025 28.0675 7.60041 27.8794 7.26481 27.5696C6.92921 27.2598 6.70726 26.8464 6.6345 26.3955C6.198 23.6955 6.0495 20.9595 6.1935 18.2355Z" fill="#1E1E1E"/>
</svg>
