<svg width="22" height="22" viewBox="0 0 22 22" fill="none" xmlns="http://www.w3.org/2000/svg">
<path d="M14.0735 1.31C14.3772 1.24021 14.695 1.2667 14.9829 1.38578C15.2708 1.50486 15.5144 1.71062 15.68 1.9745L17.171 4.355C17.2913 4.54673 17.4533 4.70878 17.645 4.829L20.0255 6.32C20.29 6.48549 20.4962 6.72932 20.6156 7.01753C20.735 7.30574 20.7615 7.62399 20.6915 7.928L20.0615 10.664C20.0107 10.8851 20.0107 11.1149 20.0615 11.336L20.6915 14.0735C20.7609 14.3771 20.734 14.6947 20.6146 14.9823C20.4953 15.2699 20.2894 15.5132 20.0255 15.6785L17.645 17.171C17.4533 17.2912 17.2913 17.4533 17.171 17.645L15.68 20.0255C15.5146 20.2896 15.2711 20.4957 14.9832 20.6151C14.6953 20.7344 14.3773 20.7611 14.0735 20.6915L11.336 20.0615C11.1154 20.0109 10.8862 20.0109 10.6655 20.0615L7.92805 20.6915C7.62426 20.7611 7.30633 20.7344 7.01843 20.6151C6.73053 20.4957 6.48695 20.2896 6.32155 20.0255L4.83055 17.645C4.7099 17.4531 4.54733 17.291 4.35505 17.171L1.97605 15.68C1.7119 15.5146 1.50583 15.271 1.38647 14.9831C1.26712 14.6952 1.24041 14.3773 1.31005 14.0735L1.93855 11.336C1.98937 11.1149 1.98937 10.8851 1.93855 10.664L1.30855 7.928C1.23871 7.62384 1.26548 7.30547 1.38513 7.01724C1.50478 6.72902 1.71134 6.48528 1.97605 6.32L4.35505 4.829C4.54733 4.70895 4.7099 4.5469 4.83055 4.355L6.32155 1.9745C6.48707 1.7109 6.73049 1.50533 7.01807 1.38627C7.30565 1.2672 7.62314 1.24055 7.92655 1.31L10.6655 1.9385C10.8862 1.98909 11.1154 1.98909 11.336 1.9385L14.0735 1.31Z" stroke="#00CC83"/>
<path d="M7.27258 11.804L10.3251 14.7275L14.7276 7.27249" stroke="#00CC83" stroke-linecap="round" stroke-linejoin="round"/>
</svg>
